<svg width="96" height="96" viewBox="0 0 96 96" fill="none" xmlns="http://www.w3.org/2000/svg">
  <rect width="96" height="96" rx="22" fill="#123C2B"/>
  <path d="M16 66C24.5 54 35.5 48 49 48C62.5 48 73.5 54 82 66" stroke="#7FE0A5" stroke-width="5" stroke-linecap="round"/>
  <path d="M23 72C30.4 64.4 39 60.6 49 60.6C59 60.6 67.6 64.4 75 72" stroke="#F5F7F3" stroke-width="4" stroke-linecap="round" opacity="0.9"/>
  <circle cx="48" cy="31" r="14" fill="#F5F7F3"/>
  <path d="M48 17V45" stroke="#123C2B" stroke-width="3" stroke-linecap="round"/>
  <path d="M35.9 24L60.1 38" stroke="#123C2B" stroke-width="3" stroke-linecap="round"/>
  <path d="M60.1 24L35.9 38" stroke="#123C2B" stroke-width="3" stroke-linecap="round"/>
  <path d="M34 48C37.6 40.4 43.2 36.6 50.8 36.6C57.2 36.6 62.2 39.3 65.8 44.7" stroke="#7FE0A5" stroke-width="6" stroke-linecap="round"/>
  <path d="M51 37L42 57" stroke="#7FE0A5" stroke-width="6" stroke-linecap="round"/>
  <path d="M55 42L69 55" stroke="#7FE0A5" stroke-width="6" stroke-linecap="round"/>
  <path d="M42 57L29 58" stroke="#7FE0A5" stroke-width="6" stroke-linecap="round"/>
</svg>
